<?xml version="1.0" encoding="utf-8"?>
<!-- Generator: Adobe Illustrator 19.2.1, SVG Export Plug-In . SVG Version: 6.00 Build 0)  -->
<svg version="1.1" xmlns="http://www.w3.org/2000/svg" xmlns:xlink="http://www.w3.org/1999/xlink" x="0px" y="0px"
	 viewBox="0 0 100 100" style="enable-background:new 0 0 100 100;" xml:space="preserve">
<style type="text/css">
	.st0{fill:#041122;}
	.st1{fill:#2D8C46;}
	.st2{fill:#36A653;}
	.st3{fill:#257339;}
	.st4{fill:#216633;}
	.st5{fill:#1D592C;}
	.st6{fill:#154020;}
	.st7{fill:#3EC060;}
</style>
<g id="BG">
	<rect class="st0" width="100" height="100"/>
</g>
<g id="Logo">
	<g>
		<polygon class="st1" points="75.5,37.2 72.3,41.7 53.2,20 		"/>
		<polygon class="st2" points="53.2,20 25.1,34 37.9,39.8 		"/>
		<polygon class="st1" points="25.1,34 23.8,64.7 37.9,39.8 		"/>
		<polygon class="st3" points="23.8,64.7 53.2,71.7 37.9,39.8 		"/>
		<polygon class="st4" points="72.3,41.7 53.2,71.7 76.2,67.2 		"/>
		<polygon class="st5" points="72.3,41.7 75.5,37.2 76.2,67.2 		"/>
		<polygon class="st6" points="53.2,71.7 48.1,80 76.2,67.2 		"/>
		<polygon class="st5" points="23.8,64.7 53.2,71.7 48.1,80 		"/>
		<polygon class="st1" points="72.3,41.7 53.2,71.7 37.9,39.8 40.7,36.1 68.5,37.3 		"/>
		<polygon class="st7" points="53.2,20 37.9,39.8 72.3,41.7 		"/>
	</g>
</g>
</svg>
