<?xml version="1.0" encoding="utf-8"?>
<!-- Generator: Adobe Illustrator 19.2.1, SVG Export Plug-In . SVG Version: 6.00 Build 0)  -->
<svg version="1.1" xmlns="http://www.w3.org/2000/svg" xmlns:xlink="http://www.w3.org/1999/xlink" x="0px" y="0px"
	 viewBox="0 0 52.3 60" style="enable-background:new 0 0 52.3 60;" xml:space="preserve">
<style type="text/css">
	.st0{fill:none;}
	.st1{fill:#2D8C46;}
	.st2{fill:#36A653;}
	.st3{fill:#257339;}
	.st4{fill:#216633;}
	.st5{fill:#1D592C;}
	.st6{fill:#154020;}
	.st7{fill:#3EC060;}
</style>
<g id="BG">
	<rect class="st0" width="52.3" height="80"/>
</g>
<g id="Logo">
	<g>
		<polygon class="st1" points="51.7,17.2 48.5,21.7 29.4,0 		"/>
		<polygon class="st2" points="29.4,0 1.3,14 14,19.8 		"/>
		<polygon class="st1" points="1.3,14 0,44.7 14,19.8 		"/>
		<polygon class="st3" points="0,44.7 29.4,51.7 14,19.8 		"/>
		<polygon class="st4" points="48.5,21.7 29.4,51.7 52.3,47.2 		"/>
		<polygon class="st5" points="48.5,21.7 51.7,17.2 52.3,47.2 		"/>
		<polygon class="st6" points="29.4,51.7 24.3,60 52.3,47.2 		"/>
		<polygon class="st5" points="0,44.7 29.4,51.7 24.3,60 		"/>
		<polygon class="st1" points="48.5,21.7 29.4,51.7 14,19.8 16.9,16.1 44.7,17.3 		"/>
		<polygon class="st7" points="29.4,0 14,19.8 48.5,21.7 		"/>
	</g>
</g>
</svg>
